<svg xmlns="http://www.w3.org/2000/svg" width="48.904" height="53.943" viewBox="0 0 48.904 53.943">
  <g id="_024-stethoscope" data-name="024-stethoscope" transform="translate(0.001)">
    <g id="Group_7243" data-name="Group 7243" transform="translate(12.815 23.441)">
      <g id="Group_7236" data-name="Group 7236" transform="translate(2.136)">
        <g id="Group_7235" data-name="Group 7235">
          <g id="Group_7234" data-name="Group 7234">
            <g id="Group_7233" data-name="Group 7233">
              <g id="Group_7232" data-name="Group 7232">
                <path id="Path_17210" data-name="Path 17210" d="M171.387,252.991a5.563,5.563,0,0,1-5.557-5.556V236.672a1.054,1.054,0,0,1,2.107,0v10.763a3.45,3.45,0,0,0,6.9,0v-12.24a3.838,3.838,0,0,1,7.677,0v6.286a4.6,4.6,0,0,0,9.191,0V223.543a1.054,1.054,0,1,1,2.107,0V241.48a6.7,6.7,0,0,1-13.406,0v-6.286a1.731,1.731,0,0,0-3.462,0v12.24A5.563,5.563,0,0,1,171.387,252.991Z" transform="translate(-165.83 -222.489)" fill="#fff"/>
              </g>
            </g>
          </g>
        </g>
      </g>
      <g id="Group_7242" data-name="Group 7242" transform="translate(0 8.865)">
        <g id="Group_7241" data-name="Group 7241">
          <g id="Group_7240" data-name="Group 7240">
            <g id="Group_7239" data-name="Group 7239">
              <g id="Group_7238" data-name="Group 7238">
                <g id="Group_7237" data-name="Group 7237">
                  <ellipse id="Ellipse_914" data-name="Ellipse 914" cx="3.19" cy="3.189" rx="3.19" ry="3.189" fill="#00acb1"/>
                </g>
              </g>
            </g>
          </g>
        </g>
      </g>
    </g>
    <g id="Group_7256" data-name="Group 7256" transform="translate(-0.001 0)">
      <path id="Path_17211" data-name="Path 17211" d="M54.872,10.927H53.806V2.605a1.054,1.054,0,0,0-1.054-1.054H46.88v-.5a1.054,1.054,0,0,0-2.107,0v3.1a1.054,1.054,0,0,0,2.107,0v-.5H51.7v7.268H50.633a1.054,1.054,0,0,0-1.054,1.054v5.008a9.659,9.659,0,0,1-19.318,0V11.981a1.054,1.054,0,0,0-1.054-1.054H28.142V3.659h4.819v.5a1.054,1.054,0,0,0,2.107,0v-3.1a1.054,1.054,0,0,0-2.107,0v.5H27.088a1.054,1.054,0,0,0-1.054,1.054v8.322H24.969a1.054,1.054,0,0,0-1.054,1.054v5.008a16.005,16.005,0,0,0,32.011,0V11.981a1.054,1.054,0,0,0-1.054-1.054Zm-1.054,6.061a13.9,13.9,0,0,1-27.8,0V13.034h2.132v3.954a11.766,11.766,0,0,0,23.532,0V13.034h2.132Z" transform="translate(-23.915 0)" fill="#fff"/>
      <g id="Group_7249" data-name="Group 7249" transform="translate(34.858 10.947)">
        <g id="Group_7248" data-name="Group 7248">
          <g id="Group_7247" data-name="Group 7247">
            <g id="Group_7246" data-name="Group 7246">
              <g id="Group_7245" data-name="Group 7245">
                <g id="Group_7244" data-name="Group 7244">
                  <ellipse id="Ellipse_915" data-name="Ellipse 915" cx="7.023" cy="7.021" rx="7.023" ry="7.021" fill="#00acb1"/>
                </g>
              </g>
            </g>
          </g>
        </g>
      </g>
      <g id="Group_7255" data-name="Group 7255" transform="translate(38.51 14.597)">
        <g id="Group_7254" data-name="Group 7254">
          <g id="Group_7253" data-name="Group 7253">
            <g id="Group_7252" data-name="Group 7252">
              <g id="Group_7251" data-name="Group 7251">
                <g id="Group_7250" data-name="Group 7250">
                  <path id="Path_17212" data-name="Path 17212" d="M392.8,145.287a3.371,3.371,0,1,1,3.372-3.371A3.375,3.375,0,0,1,392.8,145.287Zm0-4.635a1.264,1.264,0,1,0,1.264,1.264A1.265,1.265,0,0,0,392.8,140.652Z" transform="translate(-389.426 -138.545)" fill="#fff"/>
                </g>
              </g>
            </g>
          </g>
        </g>
      </g>
    </g>
  </g>
</svg>
