<svg xmlns="http://www.w3.org/2000/svg" width="42.757" height="53.943" viewBox="0 0 42.757 53.943">
  <g id="_046-medical_folder" data-name="046-medical folder" transform="translate(0.001 0)">
    <g id="Group_7493" data-name="Group 7493" transform="translate(12.736 10.935)">
      <g id="Group_7492" data-name="Group 7492">
        <g id="Group_7491" data-name="Group 7491">
          <g id="Group_7490" data-name="Group 7490">
            <g id="Group_7489" data-name="Group 7489">
              <g id="Group_7488" data-name="Group 7488">
                <path id="Path_17288" data-name="Path 17288" d="M173.979,103.8h17.283v9.436H173.979Z" transform="translate(-173.979 -103.8)" fill="#00acb1"/>
              </g>
            </g>
          </g>
        </g>
      </g>
    </g>
    <g id="Group_7494" data-name="Group 7494" transform="translate(-0.001 -0.001)">
      <path id="Path_17289" data-name="Path 17289" d="M200.3,320.671h-2.874V317.8a1.054,1.054,0,0,0-1.054-1.054h-4.627a1.054,1.054,0,0,0-1.054,1.054v2.874H187.82a1.054,1.054,0,0,0-1.054,1.053v4.627a1.054,1.054,0,0,0,1.054,1.054h2.874v2.874a1.054,1.054,0,0,0,1.054,1.054h4.627a1.054,1.054,0,0,0,1.054-1.054v-2.874H200.3a1.054,1.054,0,0,0,1.054-1.054v-4.627A1.054,1.054,0,0,0,200.3,320.671Zm-1.054,4.627h-2.874a1.054,1.054,0,0,0-1.054,1.054v2.874H192.8v-2.874a1.054,1.054,0,0,0-1.054-1.054h-2.874v-2.52h2.874a1.054,1.054,0,0,0,1.054-1.054v-2.874h2.519v2.874a1.054,1.054,0,0,0,1.054,1.054h2.874Z" transform="translate(-172.682 -283.373)" fill="#fff"/>
      <path id="Path_17290" data-name="Path 17290" d="M92.85,26.722h-.866s0-19.323,0-19.33a1.054,1.054,0,0,0-.308-.722L85.314.309A1.291,1.291,0,0,0,84.565,0H58a1.054,1.054,0,0,0-1.054,1.054V23.58h-2.8a1.054,1.054,0,0,0-1.054,1.054V50.95a3,3,0,0,0,2.992,2.992H92.85a3,3,0,0,0,2.992-2.992V29.714A3,3,0,0,0,92.85,26.722ZM88.387,6.362H85.623V3.6ZM59.05,2.107H83.516V7.415a1.054,1.054,0,0,0,1.054,1.054h5.308V26.722H67.9L66.11,24.047a1.053,1.053,0,0,0-.875-.467H59.05ZM93.735,50.95a.886.886,0,0,1-.885.885H56.077a.886.886,0,0,1-.885-.885V25.687h9.481l1.794,2.676a1.053,1.053,0,0,0,.875.467H92.85a.886.886,0,0,1,.885.885V50.95Z" transform="translate(-53.085 0)" fill="#fff"/>
    </g>
  </g>
</svg>
