<svg xmlns="http://www.w3.org/2000/svg" width="17.902" height="17.902" viewBox="0 0 17.902 17.902">
  <g id="Group_4357" data-name="Group 4357" transform="translate(0 0)">
    <path id="Path_4986" data-name="Path 4986" d="M17.344,2.178,15.722.556a1.9,1.9,0,0,0-2.688,0L.965,12.626A.534.534,0,0,0,.82,12.9l-.811,4.38a.524.524,0,0,0,.611.611L5,17.082a.534.534,0,0,0,.275-.145L17.344,4.867A1.9,1.9,0,0,0,17.344,2.178ZM1.179,16.723l.491-2.65,2.159,2.159Zm3.725-.9L2.077,13,12.4,2.674,15.226,5.5Zm11.7-11.7-.635.635L13.141,1.933l.635-.635a.853.853,0,0,1,1.2,0L16.6,2.92A.852.852,0,0,1,16.6,4.125Z" transform="translate(0 0)" fill="#fff"/>
  </g>
</svg>
