<svg xmlns="http://www.w3.org/2000/svg" width="20.863" height="29.613" viewBox="0 0 20.863 29.613">
  <path id="icon" d="M9.824,29.484,5.393,27.521,1.575,29.211A1.114,1.114,0,0,1,.32,28.971a1.1,1.1,0,0,1-.21-1.253L3.47,20.641a.742.742,0,1,1,1.326.664L1.874,27.46l2.907-1.289a1.5,1.5,0,0,1,1.216,0l4.43,1.963h.008l4.431-1.963a1.5,1.5,0,0,1,1.214,0l2.907,1.289L16.065,21.3a.737.737,0,0,1,.118-.858.745.745,0,0,1,1.21.2l3.361,7.078a1.1,1.1,0,0,1-.211,1.252,1.112,1.112,0,0,1-1.254.24l-3.812-1.689-4.438,1.963a1.5,1.5,0,0,1-1.216,0ZM8.513,24.37,2.088,13.651l-.023-.042A9.386,9.386,0,0,1,17.028,2.693,9.323,9.323,0,0,1,18.8,13.609l-.023.042L12.349,24.37a2.239,2.239,0,0,1-3.836,0ZM10.319,1.479A7.931,7.931,0,0,0,2.522,9.3a7.757,7.757,0,0,0,.854,3.612l6.413,10.7a.75.75,0,0,0,1.286,0l6.412-10.7a7.85,7.85,0,0,0-1.5-9.169,7.869,7.869,0,0,0-5.55-2.267ZM7.033,9.352a3.4,3.4,0,1,1,3.4,3.383A3.4,3.4,0,0,1,7.033,9.352Zm1.485,0a1.914,1.914,0,1,0,1.915-1.906A1.913,1.913,0,0,0,8.517,9.352Z" fill="#fff"/>
</svg>
