<svg xmlns="http://www.w3.org/2000/svg" width="24.901" height="29.612" viewBox="0 0 24.901 29.612">
  <path id="icon" d="M9.046,26.25a3.405,3.405,0,1,1,3.4,3.362A3.387,3.387,0,0,1,9.046,26.25Zm1.329,0a2.076,2.076,0,1,0,2.076-2.05A2.064,2.064,0,0,0,10.375,26.25Zm7.717-7.629a3.405,3.405,0,1,1,3.4,3.362A3.387,3.387,0,0,1,18.092,18.621Zm1.329,0a2.076,2.076,0,1,0,2.076-2.05A2.065,2.065,0,0,0,19.42,18.621Zm-10.374,0a3.405,3.405,0,1,1,3.4,3.362A3.387,3.387,0,0,1,9.046,18.621Zm1.329,0a2.076,2.076,0,1,0,2.076-2.05A2.065,2.065,0,0,0,10.375,18.621ZM0,18.621a3.387,3.387,0,0,1,3.405-3.362,3.362,3.362,0,1,1,0,6.723A3.388,3.388,0,0,1,0,18.621Zm1.329,0a2.076,2.076,0,1,0,2.076-2.05A2.065,2.065,0,0,0,1.329,18.621Zm16.762-7.629a3.405,3.405,0,1,1,3.4,3.362A3.387,3.387,0,0,1,18.092,10.992Zm1.329,0A2.076,2.076,0,1,0,21.5,8.942,2.065,2.065,0,0,0,19.42,10.991Zm-10.374,0a3.405,3.405,0,1,1,3.4,3.362A3.387,3.387,0,0,1,9.046,10.992Zm1.329,0a2.076,2.076,0,1,0,2.076-2.049A2.065,2.065,0,0,0,10.375,10.991ZM0,10.992A3.388,3.388,0,0,1,3.405,7.63a3.362,3.362,0,1,1,0,6.724A3.388,3.388,0,0,1,0,10.992Zm1.329,0A2.076,2.076,0,1,0,3.405,8.942,2.065,2.065,0,0,0,1.329,10.991ZM18.092,3.362a3.405,3.405,0,0,1,6.81,0,3.405,3.405,0,0,1-6.81,0Zm1.329,0A2.076,2.076,0,1,0,21.5,1.313,2.065,2.065,0,0,0,19.42,3.362Zm-10.374,0a3.405,3.405,0,0,1,6.81,0,3.405,3.405,0,0,1-6.81,0Zm1.329,0a2.076,2.076,0,1,0,2.076-2.05A2.065,2.065,0,0,0,10.375,3.362ZM0,3.362A3.388,3.388,0,0,1,3.405,0a3.387,3.387,0,0,1,3.4,3.362,3.387,3.387,0,0,1-3.4,3.362A3.388,3.388,0,0,1,0,3.362Zm1.329,0a2.076,2.076,0,1,0,2.076-2.05A2.065,2.065,0,0,0,1.329,3.362Z" fill="#fff"/>
</svg>
