<svg xmlns="http://www.w3.org/2000/svg" width="24.9" height="22.883" viewBox="0 0 24.9 22.883">
  <path id="icon" d="M.657,22.883A.646.646,0,0,1,.206,22.7a.626.626,0,0,1-.187-.443L0,8.66s0-.007,0-.012a.624.624,0,0,1,.275-.507L3.857,5.707V3.125A.632.632,0,0,1,4.495,2.5H8.577L12.089.112a.644.644,0,0,1,.726,0L16.3,2.5h4.1a.633.633,0,0,1,.638.627V5.738l3.565,2.437a.631.631,0,0,1,.251.349.345.345,0,0,1,.022.124L24.9,22.222a.633.633,0,0,1-.637.628L.657,22.883Zm1.866-1.257L22.361,21.6l-9.9-7.553Zm-1.23-.649,7.7-5.875L1.277,9.856ZM15.91,15.089l7.713,5.884L23.608,9.825ZM5.133,10.951l4.918,3.344,2.018-1.54a.648.648,0,0,1,.774-.005l.008.005,2,1.529,4.913-3.36V3.752H5.133ZM1.759,8.658l2.1,1.427V7.232Zm19.284,1.394,2.038-1.393L21.043,7.265ZM10.822,2.5h3.25l-1.62-1.108ZM8.133,10.777a.627.627,0,1,1,0-1.254h8.635a.627.627,0,1,1,0,1.254Zm0-3.261a.628.628,0,1,1,0-1.255h8.635a.628.628,0,1,1,0,1.255Z" fill="#fff"/>
</svg>
