<svg xmlns="http://www.w3.org/2000/svg" width="10.248" height="13.63" viewBox="0 0 10.248 13.63">
  <g id="padlock" transform="translate(-2.95 0.05)">
    <path id="Path_45690" data-name="Path 45690" d="M11.879,17.456H4.268A1.27,1.27,0,0,1,3,16.188V10.268A1.27,1.27,0,0,1,4.268,9h7.611a1.27,1.27,0,0,1,1.268,1.268v5.919A1.27,1.27,0,0,1,11.879,17.456ZM4.268,9.846a.423.423,0,0,0-.423.423v5.919a.423.423,0,0,0,.423.423h7.611a.423.423,0,0,0,.423-.423V10.268a.423.423,0,0,0-.423-.423Z" transform="translate(0 -3.926)" fill="#0a1229" stroke="#0a1229" stroke-width="0.1"/>
    <path id="Path_45691" data-name="Path 45691" d="M12.342,5.919a.423.423,0,0,1-.423-.423V3.383a2.537,2.537,0,0,0-5.074,0V5.5A.423.423,0,1,1,6,5.5V3.383a3.383,3.383,0,1,1,6.765,0V5.5A.423.423,0,0,1,12.342,5.919Z" transform="translate(-1.309)" fill="#0a1229" stroke="#0a1229" stroke-width="0.1"/>
    <path id="Path_45692" data-name="Path 45692" d="M11.128,15.255a1.128,1.128,0,1,1,1.128-1.128A1.129,1.129,0,0,1,11.128,15.255Zm0-1.409a.282.282,0,1,0,.282.282A.282.282,0,0,0,11.128,13.846Z" transform="translate(-3.054 -5.671)" fill="#0a1229" stroke="#0a1229" stroke-width="0.1"/>
    <path id="Path_45693" data-name="Path 45693" d="M11.673,18.146a.423.423,0,0,1-.423-.423v-1.55a.423.423,0,0,1,.846,0v1.55A.423.423,0,0,1,11.673,18.146Z" transform="translate(-3.599 -6.871)" fill="#0a1229" stroke="#0a1229" stroke-width="0.1"/>
  </g>
</svg>
