<svg xmlns="http://www.w3.org/2000/svg" width="13.68" height="11.086" viewBox="0 0 13.68 11.086">
  <path id="Path_2" data-name="Path 2" d="M42.736,3.626a4.345,4.345,0,0,1-.317.43,5.318,5.318,0,0,1-1.023.969l-.048.089a7.6,7.6,0,0,1-.062,1.241,8.3,8.3,0,0,1-2.267,4.7A7.542,7.542,0,0,1,35.153,13.2a8.62,8.62,0,0,1-1.562.184c-.085,0-.169,0-.253,0a7.845,7.845,0,0,1-4.216-1.208l-.068-.042a6.238,6.238,0,0,0,.658.035,5.691,5.691,0,0,0,2.147-.418,5.555,5.555,0,0,0,1.336-.78,2.777,2.777,0,0,1-2.588-1.943,2.726,2.726,0,0,0,.52.05A2.951,2.951,0,0,0,31.808,9l.042-.021a2.785,2.785,0,0,1-2.21-2.77,2.756,2.756,0,0,0,1.244.335,2.8,2.8,0,0,1-.82-3.723,7.932,7.932,0,0,0,5.749,2.927c-.015-.115-.03-.209-.045-.309A2.716,2.716,0,0,1,36.2,3.611,2.7,2.7,0,0,1,38.1,2.344,3.075,3.075,0,0,1,38.61,2.3a2.7,2.7,0,0,1,1.936.824.148.148,0,0,0,.1.048.17.17,0,0,0,.043-.006,5.523,5.523,0,0,0,1.633-.623l.037-.021a2.761,2.761,0,0,1-1.19,1.524A5.413,5.413,0,0,0,42.736,3.626Z" transform="translate(-29.056 -2.3)" fill="#005963"/>
</svg>
