<svg id="placeholder" xmlns="http://www.w3.org/2000/svg" width="15.054" height="21.41" viewBox="0 0 15.054 21.41">
  <g id="Group_9" data-name="Group 9" transform="translate(0)">
    <g id="Group_8" data-name="Group 8">
      <path id="Path_7" data-name="Path 7" d="M83.527,0a7.528,7.528,0,0,0-6.4,11.485L83.1,21.114a.627.627,0,0,0,.533.3h0a.627.627,0,0,0,.533-.3l5.823-9.722A7.529,7.529,0,0,0,83.527,0Zm5.389,10.739-5.294,8.839L78.19,10.824a6.277,6.277,0,1,1,10.726-.085Z" transform="translate(-76)" fill="#8c8f90"/>
    </g>
  </g>
  <g id="Group_11" data-name="Group 11" transform="translate(3.764 3.764)">
    <g id="Group_10" data-name="Group 10">
      <path id="Path_8" data-name="Path 8" d="M169.764,90a3.764,3.764,0,1,0,3.763,3.764A3.768,3.768,0,0,0,169.764,90Zm0,6.281a2.517,2.517,0,1,1,2.513-2.517A2.519,2.519,0,0,1,169.764,96.281Z" transform="translate(-166 -90)" fill="#8c8f90"/>
    </g>
  </g>
</svg>
