<svg xmlns="http://www.w3.org/2000/svg" width="18.204" height="13.353" viewBox="0 0 18.204 13.353">
  <path id="Shape_39" data-name="Shape 39" d="M16.51,13.652H1.693A1.661,1.661,0,0,1,0,12.03V1.921A1.661,1.661,0,0,1,1.693.3H16.51A1.66,1.66,0,0,1,18.2,1.921V12.03A1.66,1.66,0,0,1,16.51,13.652ZM1.27,2.123V12.03a.415.415,0,0,0,.423.406H16.51a.415.415,0,0,0,.424-.406V2.123L9.483,7.478a.664.664,0,0,1-.762,0Zm1.272-.608L9.1,6.229l6.56-4.714Z" transform="translate(0.001 -0.299)" fill="#005963"/>
</svg>
