<svg xmlns="http://www.w3.org/2000/svg" width="17.999" height="14.809" viewBox="0 0 17.999 14.809">
  <path id="Shape_3" data-name="Shape 3" d="M1503.836,572.969a.411.411,0,0,1-.265-.38v-2.071h-1.286a1.261,1.261,0,0,1-1.285-1.233v-9.861a1.262,1.262,0,0,1,1.285-1.233h15.429a1.261,1.261,0,0,1,1.285,1.233v9.861a1.261,1.261,0,0,1-1.285,1.233h-10.948l-2.462,2.362a.439.439,0,0,1-.3.12A.451.451,0,0,1,1503.836,572.969Zm-1.979-13.545v9.861a.421.421,0,0,0,.428.411H1504a.42.42,0,0,1,.428.41v1.49l1.857-1.78a.439.439,0,0,1,.3-.121h11.126a.42.42,0,0,0,.428-.411v-9.861a.42.42,0,0,0-.428-.411h-15.429A.421.421,0,0,0,1501.857,559.424Zm10.863,4.927a.62.62,0,1,1,.62.64A.63.63,0,0,1,1512.72,564.35Zm-3.34,0a.62.62,0,1,1,.62.64A.631.631,0,0,1,1509.38,564.35Zm-3.59,0a.62.62,0,1,1,.62.64A.631.631,0,0,1,1505.79,564.35Z" transform="translate(-1501 -558.191)" fill="#fff"/>
</svg>
