<svg xmlns="http://www.w3.org/2000/svg" width="17.179" height="11.832" viewBox="0 0 17.179 11.832">
  <path id="social_icon" data-name="social icon" d="M454.987,770.339a2.084,2.084,0,0,0,1.871-1.113,3.081,3.081,0,0,1-2.025.225c-.029-.141-.062-.274-.094-.393a3.693,3.693,0,0,0-3.642-2.852c.132-.053.266-.1.4-.147.18-.065,1.233-.235,1.067-.608-.14-.328-1.427.246-1.669.322.32-.12.849-.327.906-.695a2.554,2.554,0,0,0-1.343.636.925.925,0,0,0,.258-.509c-1.307.834-2.071,2.518-2.689,4.15a6.493,6.493,0,0,0-1.3-1.047,33.943,33.943,0,0,0-4.408-1.939,2.332,2.332,0,0,0,1.47,2.159,3.657,3.657,0,0,0-1.057.126c.147.771.626,1.406,1.924,1.711a1.572,1.572,0,0,0-1.177.465,1.992,1.992,0,0,0,2.115,1.035c-1.318.568-.538,1.621.535,1.464a4.557,4.557,0,0,1-6.372.17c4.326,5.893,13.728,3.485,15.129-2.192a2.6,2.6,0,0,0,2.05-.773A4.206,4.206,0,0,1,454.987,770.339Z" transform="translate(-439.754 -765.078)" fill="#005963" opacity="0.561"/>
</svg>
