<svg xmlns="http://www.w3.org/2000/svg" width="10.662" height="16.265" viewBox="0 0 10.662 16.265">
  <path id="social_icon" data-name="social icon" d="M510.581,762.856h-4.4a5.823,5.823,0,0,0-3.824,1.173,3.833,3.833,0,0,0-1.367,2.86,3.377,3.377,0,0,0,3.546,3.352c.214,0,.448-.022.684-.043a1.9,1.9,0,0,0-.215.832,2.244,2.244,0,0,0,.641,1.452,9.213,9.213,0,0,0-4.081.98,3.078,3.078,0,0,0-1.646,2.606c0,1.58,1.5,3.053,4.594,3.053,3.675,0,5.62-2.028,5.62-4.036,0-1.471-.855-2.2-1.795-2.988l-.769-.6a1.175,1.175,0,0,1-.555-.918,1.5,1.5,0,0,1,.6-1.046,3.475,3.475,0,0,0,.278-5.913h1.325ZM508.7,775.917c0,1.324-1.09,2.3-3.142,2.3-2.286,0-3.76-1.087-3.76-2.6a2.4,2.4,0,0,1,1.837-2.2,8.57,8.57,0,0,1,2.243-.341,3.7,3.7,0,0,1,.492.02C508,774.252,508.7,774.829,508.7,775.917Zm-1.71-6.872a2.193,2.193,0,0,1-1.454.6c-1.837,0-2.67-2.37-2.67-3.8a2.469,2.469,0,0,1,.469-1.579,2,2,0,0,1,1.5-.7c1.773,0,2.692,2.39,2.692,3.927A2.159,2.159,0,0,1,506.992,769.045Z" transform="translate(-499.919 -762.856)" fill="#005963" opacity="0.561"/>
</svg>
