<svg xmlns="http://www.w3.org/2000/svg" width="12.699" height="16.403" viewBox="0 0 12.699 16.403">
  <path id="social_icon" data-name="social icon" d="M615.283,762.649c-4.477,0-6.734,3.208-6.734,5.885,0,1.62.613,3.063,1.929,3.6a.324.324,0,0,0,.472-.235c.043-.165.146-.583.193-.757a.457.457,0,0,0-.136-.525,2.718,2.718,0,0,1-.622-1.848,4.463,4.463,0,0,1,4.639-4.513c2.53,0,3.92,1.547,3.92,3.611,0,2.717-1.2,5.011-2.987,5.011a1.459,1.459,0,0,1-1.487-1.816,20.184,20.184,0,0,0,.832-3.344,1.261,1.261,0,0,0-1.271-1.414c-1.008,0-1.817,1.042-1.817,2.44a3.618,3.618,0,0,0,.3,1.49l-1.212,5.136a10.571,10.571,0,0,0-.028,3.58.125.125,0,0,0,.224.054,10.047,10.047,0,0,0,1.7-3.083c.115-.42.663-2.591.663-2.591a2.7,2.7,0,0,0,2.3,1.175c3.029,0,5.084-2.762,5.084-6.458A5.631,5.631,0,0,0,615.283,762.649Z" transform="translate(-608.549 -762.649)" fill="#005963" opacity="0.561"/>
</svg>
