<svg xmlns="http://www.w3.org/2000/svg" width="13.042" height="13.038" viewBox="0 0 13.042 13.038">
  <path id="Union_2" data-name="Union 2" d="M107.938,14.5a21.2,21.2,0,0,1-3.624-.193,3.258,3.258,0,0,1-2.6-2.843,36.722,36.722,0,0,1,.123-7.321,3.321,3.321,0,0,1,2.842-2.534,24.678,24.678,0,0,1,3.268-.148c1.115,0,2.365.029,3.184.074a3.605,3.605,0,0,1,2.381.975,3.432,3.432,0,0,1,1.04,2.225,41.448,41.448,0,0,1-.142,7.012,3.335,3.335,0,0,1-2.879,2.608A32.283,32.283,0,0,1,107.938,14.5Zm.231-11.857c-1.376,0-2.616.038-3.159.1A2.24,2.24,0,0,0,102.927,4.7a44.445,44.445,0,0,0-.045,6.583,2.1,2.1,0,0,0,1.609,1.843,22.074,22.074,0,0,0,3.507.193c1.349,0,2.7-.041,3.216-.1a2.235,2.235,0,0,0,2.088-1.975,47.038,47.038,0,0,0,.081-6.4,2.2,2.2,0,0,0-1.953-2.079A29.186,29.186,0,0,0,108.169,2.64Zm-.083,8.685a3.312,3.312,0,0,1-3.316-3.346,3.375,3.375,0,0,1,3.363-3.342h.008a3.314,3.314,0,0,1,3.316,3.347A3.377,3.377,0,0,1,108.086,11.325Zm.043-5.51a2.188,2.188,0,0,0-2.18,2.142,2.142,2.142,0,0,0,2.125,2.183h.019A2.191,2.191,0,0,0,110.275,8a2.142,2.142,0,0,0-2.126-2.184Zm3.48-.523a.783.783,0,0,1,.007-1.566h.009a.768.768,0,0,1,.549.229.776.776,0,0,1,.226.557A.791.791,0,0,1,111.61,5.292Z" transform="translate(-101.595 -1.458)" fill="#005963"/>
</svg>
