<svg xmlns="http://www.w3.org/2000/svg" width="22.737" height="13.264" viewBox="0 0 22.737 13.264">
  <g id="visibility" transform="translate(0 -106.662)">
    <g id="Group_4370" data-name="Group 4370" transform="translate(0 106.662)">
      <g id="Group_4369" data-name="Group 4369" transform="translate(0 0)">
        <path id="Path_4989" data-name="Path 4989" d="M22.653,113.025c-.179-.261-4.482-6.363-11.284-6.363-5.837,0-11.038,6.067-11.257,6.326a.475.475,0,0,0,0,.612c.219.259,5.42,6.326,11.257,6.326s11.038-6.067,11.257-6.326A.474.474,0,0,0,22.653,113.025Zm-11.284,5.953c-4.679,0-9.128-4.462-10.258-5.684,1.128-1.223,5.573-5.684,10.258-5.684,5.475,0,9.339,4.456,10.283,5.659C20.562,114.452,16.088,118.978,11.369,118.978Z" transform="translate(0 -106.662)" fill="#707070"/>
      </g>
    </g>
    <g id="Group_4372" data-name="Group 4372" transform="translate(7.579 109.504)">
      <g id="Group_4371" data-name="Group 4371">
        <path id="Path_4990" data-name="Path 4990" d="M174.452,170.662a3.79,3.79,0,1,0,3.79,3.79A3.793,3.793,0,0,0,174.452,170.662Zm0,6.632a2.842,2.842,0,1,1,2.842-2.842A2.846,2.846,0,0,1,174.452,177.294Z" transform="translate(-170.662 -170.662)" fill="#707070"/>
      </g>
    </g>
  </g>
</svg>
