<svg xmlns="http://www.w3.org/2000/svg" width="82.092" height="82.091" viewBox="0 0 82.092 82.091">
  <g id="appointment" transform="translate(0)">
    <g id="Group_8952" data-name="Group 8952" transform="translate(0 0)">
      <g id="Group_8951" data-name="Group 8951">
        <path id="Path_20313" data-name="Path 20313" d="M74.075,7.055H66.432V4.81a4.81,4.81,0,0,0-9.62,0V7.055H29.876V4.81a4.81,4.81,0,0,0-9.62,0v2.3a1.6,1.6,0,0,0-.427-.059H13.44a8.026,8.026,0,0,0-8.017,8.017v27.31a1.6,1.6,0,0,0,3.207,0V23.569h57.8a1.6,1.6,0,1,0,0-3.207H8.63V15.071a4.816,4.816,0,0,1,4.81-4.81h6.388a1.606,1.606,0,0,0,.427-.059v2.064a4.81,4.81,0,0,0,9.62,0v-2H56.812v2a4.81,4.81,0,0,0,9.62,0v-2h7.643a4.816,4.816,0,0,1,4.81,4.81V76a2.887,2.887,0,0,1-5.774,0V71.85a1.6,1.6,0,0,0-1.6-1.6H52.857a1.6,1.6,0,1,0,0,3.207H69.9V76a6.057,6.057,0,0,0,.729,2.887H6.093A2.889,2.889,0,0,1,3.207,76V73.453H39.094a1.6,1.6,0,1,0,0-3.207H23.074a13.148,13.148,0,1,0-17.134,0H1.6A1.6,1.6,0,0,0,0,71.85V76a6.1,6.1,0,0,0,6.093,6.093H76A6.1,6.1,0,0,0,82.092,76V15.071A8.026,8.026,0,0,0,74.075,7.055ZM26.669,12.266a1.6,1.6,0,0,1-3.207,0V4.81a1.6,1.6,0,0,1,3.207,0Zm36.557,0a1.6,1.6,0,0,1-3.207,0V4.81a1.6,1.6,0,0,1,3.207,0ZM4.566,60.286a9.941,9.941,0,1,1,9.941,9.941A9.952,9.952,0,0,1,4.566,60.286Z" fill="#00acb1"/>
      </g>
    </g>
    <g id="Group_8954" data-name="Group 8954" transform="translate(72.35 20.362)">
      <g id="Group_8953" data-name="Group 8953">
        <path id="Path_20314" data-name="Path 20314" d="M453.977,127.47a1.6,1.6,0,1,0,.47,1.134A1.615,1.615,0,0,0,453.977,127.47Z" transform="translate(-451.24 -127)" fill="#00acb1"/>
      </g>
    </g>
    <g id="Group_8956" data-name="Group 8956" transform="translate(45.147 70.247)">
      <g id="Group_8955" data-name="Group 8955">
        <path id="Path_20315" data-name="Path 20315" d="M284.317,438.6a1.6,1.6,0,1,0,.47,1.134A1.613,1.613,0,0,0,284.317,438.6Z" transform="translate(-281.58 -438.13)" fill="#00acb1"/>
      </g>
    </g>
    <g id="Group_8958" data-name="Group 8958" transform="translate(30.182 48.742)">
      <g id="Group_8957" data-name="Group 8957">
        <path id="Path_20316" data-name="Path 20316" d="M194.338,304a6.093,6.093,0,1,0,6.093,6.093A6.1,6.1,0,0,0,194.338,304Zm0,8.979a2.886,2.886,0,1,1,2.886-2.886A2.889,2.889,0,0,1,194.338,312.979Z" transform="translate(-188.245 -304)" fill="#00acb1"/>
      </g>
    </g>
    <g id="Group_8960" data-name="Group 8960" transform="translate(45.147 48.742)">
      <g id="Group_8959" data-name="Group 8959">
        <path id="Path_20317" data-name="Path 20317" d="M287.671,304a6.093,6.093,0,1,0,6.093,6.093A6.1,6.1,0,0,0,287.671,304Zm0,8.979a2.886,2.886,0,1,1,2.886-2.886A2.889,2.889,0,0,1,287.671,312.979Z" transform="translate(-281.578 -304)" fill="#00acb1"/>
      </g>
    </g>
    <g id="Group_8962" data-name="Group 8962" transform="translate(60.112 48.742)">
      <g id="Group_8961" data-name="Group 8961">
        <path id="Path_20318" data-name="Path 20318" d="M381,304a6.093,6.093,0,1,0,6.093,6.093A6.1,6.1,0,0,0,381,304Zm0,8.979a2.886,2.886,0,1,1,2.886-2.886A2.889,2.889,0,0,1,381,312.979Z" transform="translate(-374.912 -304)" fill="#00acb1"/>
      </g>
    </g>
    <g id="Group_8964" data-name="Group 8964" transform="translate(15.217 32.067)">
      <g id="Group_8963" data-name="Group 8963">
        <path id="Path_20319" data-name="Path 20319" d="M101,200a6.093,6.093,0,1,0,6.093,6.093A6.1,6.1,0,0,0,101,200Zm0,8.979a2.886,2.886,0,1,1,2.886-2.886A2.889,2.889,0,0,1,101,208.979Z" transform="translate(-94.912 -200)" fill="#00acb1"/>
      </g>
    </g>
    <g id="Group_8966" data-name="Group 8966" transform="translate(45.147 32.067)">
      <g id="Group_8965" data-name="Group 8965">
        <path id="Path_20320" data-name="Path 20320" d="M287.671,200a6.093,6.093,0,1,0,6.093,6.093A6.1,6.1,0,0,0,287.671,200Zm0,8.979a2.886,2.886,0,1,1,2.886-2.886A2.889,2.889,0,0,1,287.671,208.979Z" transform="translate(-281.578 -200)" fill="#00acb1"/>
      </g>
    </g>
    <g id="Group_8968" data-name="Group 8968" transform="translate(60.112 32.067)">
      <g id="Group_8967" data-name="Group 8967">
        <path id="Path_20321" data-name="Path 20321" d="M381,200a6.093,6.093,0,1,0,6.093,6.093A6.1,6.1,0,0,0,381,200Zm0,8.979a2.886,2.886,0,1,1,2.886-2.886A2.889,2.889,0,0,1,381,208.979Z" transform="translate(-374.912 -200)" fill="#00acb1"/>
      </g>
    </g>
    <g id="Group_8970" data-name="Group 8970" transform="translate(30.182 32.067)">
      <g id="Group_8969" data-name="Group 8969">
        <path id="Path_20322" data-name="Path 20322" d="M194.338,200a6.093,6.093,0,1,0,6.093,6.093A6.1,6.1,0,0,0,194.338,200Zm0,8.979a2.886,2.886,0,1,1,2.886-2.886A2.889,2.889,0,0,1,194.338,208.979Z" transform="translate(-188.245 -200)" fill="#00acb1"/>
      </g>
    </g>
    <g id="Group_8972" data-name="Group 8972" transform="translate(8.208 55.909)">
      <g id="Group_8971" data-name="Group 8971">
        <path id="Path_20323" data-name="Path 20323" d="M63.2,349.17a1.6,1.6,0,0,0-2.268,0l-5.222,5.222-1.784-1.784a1.6,1.6,0,0,0-2.268,2.268l2.918,2.918a1.6,1.6,0,0,0,2.267,0l6.355-6.355A1.6,1.6,0,0,0,63.2,349.17Z" transform="translate(-51.194 -348.7)" fill="#00acb1"/>
      </g>
    </g>
  </g>
</svg>
