<svg id="_046-medical_folder" data-name="046-medical folder" xmlns="http://www.w3.org/2000/svg" width="42.591" height="53.733" viewBox="0 0 42.591 53.733">
  <g id="Group_7493" data-name="Group 7493" transform="translate(12.688 10.893)">
    <g id="Group_7492" data-name="Group 7492">
      <g id="Group_7491" data-name="Group 7491">
        <g id="Group_7490" data-name="Group 7490">
          <g id="Group_7489" data-name="Group 7489">
            <g id="Group_7488" data-name="Group 7488">
              <path id="Path_17288" data-name="Path 17288" d="M173.979,103.8H191.2v9.4H173.979Z" transform="translate(-173.979 -103.8)" fill="#00acb1"/>
            </g>
          </g>
        </g>
      </g>
    </g>
  </g>
  <g id="Group_7494" data-name="Group 7494">
    <path id="Path_17289" data-name="Path 17289" d="M200.249,320.656h-2.863v-2.863a1.05,1.05,0,0,0-1.049-1.05h-4.609a1.05,1.05,0,0,0-1.049,1.05v2.863h-2.863a1.05,1.05,0,0,0-1.05,1.049v4.609a1.05,1.05,0,0,0,1.05,1.05h2.863v2.863a1.049,1.049,0,0,0,1.049,1.049h4.609a1.049,1.049,0,0,0,1.049-1.049v-2.863h2.863a1.05,1.05,0,0,0,1.049-1.05v-4.609A1.049,1.049,0,0,0,200.249,320.656Zm-1.049,4.609h-2.863a1.05,1.05,0,0,0-1.05,1.049v2.863h-2.51v-2.863a1.05,1.05,0,0,0-1.05-1.049h-2.863v-2.51h2.863a1.05,1.05,0,0,0,1.05-1.05v-2.863h2.51v2.863a1.05,1.05,0,0,0,1.05,1.05H199.2Z" transform="translate(-172.736 -283.503)" fill="#005963"/>
    <path id="Path_17290" data-name="Path 17290" d="M92.7,26.619h-.862s0-19.248,0-19.255a1.05,1.05,0,0,0-.307-.72L85.189.307A1.286,1.286,0,0,0,84.443,0H57.977a1.05,1.05,0,0,0-1.049,1.049V23.488H54.135a1.05,1.05,0,0,0-1.049,1.049V50.752a2.984,2.984,0,0,0,2.98,2.98H92.7a2.984,2.984,0,0,0,2.98-2.98V29.6A2.984,2.984,0,0,0,92.7,26.619ZM88.25,6.337H85.5V3.583ZM59.027,2.1H83.4V7.386a1.05,1.05,0,0,0,1.049,1.049h5.288V26.619H67.847l-1.787-2.665a1.049,1.049,0,0,0-.872-.465H59.027ZM93.577,50.752a.882.882,0,0,1-.881.881H56.065a.882.882,0,0,1-.881-.881V25.587h9.444l1.787,2.665a1.049,1.049,0,0,0,.872.465H92.7a.882.882,0,0,1,.881.881V50.752Z" transform="translate(-53.085 0)" fill="#005963"/>
  </g>
</svg>
