<svg id="_024-stethoscope" data-name="024-stethoscope" xmlns="http://www.w3.org/2000/svg" width="48.714" height="53.733" viewBox="0 0 48.714 53.733">
  <g id="Group_7243" data-name="Group 7243" transform="translate(12.766 23.35)">
    <g id="Group_7236" data-name="Group 7236" transform="translate(2.128)">
      <g id="Group_7235" data-name="Group 7235">
        <g id="Group_7234" data-name="Group 7234">
          <g id="Group_7233" data-name="Group 7233">
            <g id="Group_7232" data-name="Group 7232">
              <path id="Path_17210" data-name="Path 17210" d="M171.366,252.872a5.541,5.541,0,0,1-5.536-5.534V236.617a1.049,1.049,0,0,1,2.1,0v10.721a3.437,3.437,0,0,0,6.874,0V235.145a3.824,3.824,0,0,1,7.647,0v6.261a4.578,4.578,0,0,0,9.156,0V223.539a1.049,1.049,0,1,1,2.1,0v17.868a6.677,6.677,0,0,1-13.353,0v-6.261a1.725,1.725,0,0,0-3.449,0v12.193A5.541,5.541,0,0,1,171.366,252.872Z" transform="translate(-165.83 -222.489)" fill="#005963"/>
            </g>
          </g>
        </g>
      </g>
    </g>
    <g id="Group_7242" data-name="Group 7242" transform="translate(0 8.831)">
      <g id="Group_7241" data-name="Group 7241">
        <g id="Group_7240" data-name="Group 7240">
          <g id="Group_7239" data-name="Group 7239">
            <g id="Group_7238" data-name="Group 7238">
              <g id="Group_7237" data-name="Group 7237">
                <ellipse id="Ellipse_914" data-name="Ellipse 914" cx="3.177" cy="3.176" rx="3.177" ry="3.176" fill="#00acb1"/>
              </g>
            </g>
          </g>
        </g>
      </g>
    </g>
  </g>
  <g id="Group_7256" data-name="Group 7256" transform="translate(0 0)">
    <path id="Path_17211" data-name="Path 17211" d="M54.752,10.885H53.69V2.6a1.05,1.05,0,0,0-1.049-1.049H46.79v-.5a1.049,1.049,0,0,0-2.1,0V4.141a1.049,1.049,0,0,0,2.1,0v-.5h4.8v7.24H50.529a1.05,1.05,0,0,0-1.049,1.049v4.988a9.621,9.621,0,0,1-19.243,0V11.934a1.05,1.05,0,0,0-1.049-1.049H28.125V3.645h4.8v.5a1.049,1.049,0,0,0,2.1,0V1.049a1.049,1.049,0,0,0-2.1,0v.5h-5.85A1.05,1.05,0,0,0,26.026,2.6v8.29H24.964a1.05,1.05,0,0,0-1.049,1.049v4.988a15.943,15.943,0,0,0,31.887,0V11.934a1.049,1.049,0,0,0-1.049-1.049ZM53.7,16.923a13.844,13.844,0,0,1-27.689,0V12.984h2.124v3.939a11.72,11.72,0,0,0,23.441,0V12.984H53.7Z" transform="translate(-23.915 0)" fill="#005963"/>
    <g id="Group_7249" data-name="Group 7249" transform="translate(34.723 10.904)">
      <g id="Group_7248" data-name="Group 7248">
        <g id="Group_7247" data-name="Group 7247">
          <g id="Group_7246" data-name="Group 7246">
            <g id="Group_7245" data-name="Group 7245">
              <g id="Group_7244" data-name="Group 7244">
                <ellipse id="Ellipse_915" data-name="Ellipse 915" cx="6.996" cy="6.993" rx="6.996" ry="6.993" fill="#00acb1"/>
              </g>
            </g>
          </g>
        </g>
      </g>
    </g>
    <g id="Group_7255" data-name="Group 7255" transform="translate(38.36 14.54)">
      <g id="Group_7254" data-name="Group 7254">
        <g id="Group_7253" data-name="Group 7253">
          <g id="Group_7252" data-name="Group 7252">
            <g id="Group_7251" data-name="Group 7251">
              <g id="Group_7250" data-name="Group 7250">
                <path id="Path_17212" data-name="Path 17212" d="M392.784,145.26a3.358,3.358,0,1,1,3.358-3.358A3.362,3.362,0,0,1,392.784,145.26Zm0-4.617a1.259,1.259,0,1,0,1.259,1.259A1.261,1.261,0,0,0,392.784,140.644Z" transform="translate(-389.426 -138.545)" fill="#005963"/>
              </g>
            </g>
          </g>
        </g>
      </g>
    </g>
  </g>
</svg>
