<svg id="_036-ambulance" data-name="036-ambulance" xmlns="http://www.w3.org/2000/svg" width="53.943" height="46.63" viewBox="0 0 53.943 46.63">
  <g id="Group_7373" data-name="Group 7373">
    <path id="Path_17250" data-name="Path 17250" d="M53.714,110.948,51.4,108.041a1.053,1.053,0,0,0-.824-.4H49.76L41.927,97.8a1.054,1.054,0,0,0-.824-.4H38.694v-2.4a3.633,3.633,0,0,0-3.624-3.633H24.779V90.9a5.432,5.432,0,0,0-10.863,0v.48H3.624A3.633,3.633,0,0,0,0,95.009v26.47a1.054,1.054,0,0,0,1.054,1.054H3.4a5.245,5.245,0,0,0,10.286,0H40.065a5.245,5.245,0,0,0,10.286,0H52.89a1.054,1.054,0,0,0,1.054-1.054V111.6A1.054,1.054,0,0,0,53.714,110.948ZM40.594,99.515l6.472,8.129H38.694V99.515ZM16.022,90.9a3.325,3.325,0,0,1,6.649,0v.48H16.022V90.9ZM2.107,95.009a1.523,1.523,0,0,1,1.517-1.526H35.07a1.523,1.523,0,0,1,1.517,1.526v25.416h-22.9a5.245,5.245,0,0,0-10.286,0H2.107Zm6.437,29.63a3.161,3.161,0,1,1,3.141-3.161A3.155,3.155,0,0,1,8.544,124.64Zm36.664,0a3.161,3.161,0,1,1,3.141-3.161A3.155,3.155,0,0,1,45.208,124.64Zm6.628-4.214H50.351a5.245,5.245,0,0,0-10.286,0H38.694V109.751H50.065l1.771,2.223Z" transform="translate(0 -80.117)" fill="#005963"/>
    <path id="Path_17251" data-name="Path 17251" d="M174.683,38.086a1.054,1.054,0,0,0,1.054-1.054V35.758a1.054,1.054,0,0,0-2.107,0v1.275A1.054,1.054,0,0,0,174.683,38.086Z" transform="translate(-155.336 -34.704)" fill="#005963"/>
    <path id="Path_17252" data-name="Path 17252" d="M233.966,69.478a1.054,1.054,0,0,0,1.489-.041l1.12-1.183a1.054,1.054,0,1,0-1.531-1.448l-1.12,1.183A1.054,1.054,0,0,0,233.966,69.478Z" transform="translate(-209.021 -63.128)" fill="#005963"/>
    <path id="Path_17253" data-name="Path 17253" d="M104.4,69.436a1.054,1.054,0,0,0,1.531-1.448l-1.12-1.183a1.054,1.054,0,0,0-1.531,1.448Z" transform="translate(-92.143 -63.128)" fill="#005963"/>
  </g>
  <g id="Group_7379" data-name="Group 7379" transform="translate(9.577 19.163)">
    <g id="Group_7378" data-name="Group 7378">
      <g id="Group_7377" data-name="Group 7377">
        <g id="Group_7376" data-name="Group 7376">
          <g id="Group_7375" data-name="Group 7375">
            <g id="Group_7374" data-name="Group 7374">
              <path id="Path_17254" data-name="Path 17254" d="M90.9,216.592h19.425v11.936H90.9Z" transform="translate(-90.896 -216.592)" fill="#00acb1"/>
            </g>
          </g>
        </g>
      </g>
    </g>
  </g>
</svg>
