<svg xmlns="http://www.w3.org/2000/svg" width="17.453" height="13.09" viewBox="0 0 17.453 13.09">
  <g id="envelope" transform="translate(0 0)">
    <g id="Group_28" data-name="Group 28" transform="translate(0 0)">
      <path id="Path_21" data-name="Path 21" d="M16,64H1.454A1.456,1.456,0,0,0,0,65.454V75.635A1.456,1.456,0,0,0,1.454,77.09H16a1.456,1.456,0,0,0,1.454-1.454V65.454A1.456,1.456,0,0,0,16,64Zm-14.544.727H16a.692.692,0,0,1,.151.031c-1.259,1.152-5.434,4.972-6.9,6.288a.729.729,0,0,1-1.056,0C6.737,69.73,2.562,65.91,1.3,64.758A.7.7,0,0,1,1.454,64.727ZM.727,75.635V65.454a.7.7,0,0,1,.041-.2c.964.882,3.877,3.547,5.766,5.265-1.883,1.617-4.8,4.38-5.768,5.306A.7.7,0,0,1,.727,75.635ZM16,76.362H1.454a.7.7,0,0,1-.164-.033c1-.957,3.936-3.735,5.786-5.318l.635.575a1.452,1.452,0,0,0,2.029,0l.635-.575c1.85,1.582,4.782,4.361,5.786,5.318A.694.694,0,0,1,16,76.362Zm.727-.727a.7.7,0,0,1-.038.19c-.972-.927-3.885-3.689-5.768-5.306,1.889-1.718,4.8-4.383,5.766-5.265a.7.7,0,0,1,.041.2Z" transform="translate(0 -64)" fill="#8c8f90"/>
    </g>
  </g>
</svg>
