<svg xmlns="http://www.w3.org/2000/svg" width="76.838" height="77.089" viewBox="0 0 76.838 77.089">
  <g id="feedback" transform="translate(0.001)">
    <g id="Group_8988" data-name="Group 8988" transform="translate(-0.001 0)">
      <g id="Group_8987" data-name="Group 8987">
        <path id="Path_20326" data-name="Path 20326" d="M72.615,7.7H46.961V5.131A5.146,5.146,0,0,0,41.83,0H5.915A5.146,5.146,0,0,0,.784,5.131V33.35c0,14.109,13.468,14.109,17.958,14.109a1.283,1.283,0,1,0,0-2.565,5.146,5.146,0,0,1-5.131-5.131V39.25A5.4,5.4,0,0,1,19,34.632H36.7V37.2H25.155a1.212,1.212,0,0,0-1.283,1.283A11.516,11.516,0,0,0,26.951,46.3a12.4,12.4,0,0,0-.513,3.72,12.963,12.963,0,0,0,7.7,11.8c0,.77-.385,2.309-3.848,2.309a6.351,6.351,0,0,0-6.413,6.413v6.413h2.565V70.547A3.81,3.81,0,0,1,30.029,66.7l6.285,3.078a8.906,8.906,0,0,0,1.667.641v6.542h2.565V70.419a6.35,6.35,0,0,0,1.667-.513L48.5,66.827a3.81,3.81,0,0,1,3.592,3.848v6.413h2.565V70.675a6.351,6.351,0,0,0-6.413-6.413c-3.463,0-3.848-1.539-3.848-2.309a12.767,12.767,0,0,0,7.7-12.185v-.9a10.164,10.164,0,0,0-1.283-5.131H59.4a5.4,5.4,0,0,1,5.387,4.618A5.175,5.175,0,0,1,60.172,54h-.513a1.283,1.283,0,1,0,0,2.565c4.489,0,17.958,0,17.958-14.109V12.827A4.958,4.958,0,0,0,72.615,7.7ZM19,32.067a8.019,8.019,0,0,0-7.953,6.926,8.065,8.065,0,0,0,1.539,5.387C6.3,43.1,3.349,39.635,3.349,33.35V5.131A2.573,2.573,0,0,1,5.915,2.565H41.83A2.573,2.573,0,0,1,44.4,5.131V29.5a2.573,2.573,0,0,1-2.565,2.565Zm7.568,7.7H40.547a8.975,8.975,0,0,1,8.851,7.7H35.417A8.975,8.975,0,0,1,26.566,39.763ZM42.728,59.644a1.232,1.232,0,0,0-.9,1.154v.77A4.514,4.514,0,0,0,44.4,65.93L41.06,67.6a4.687,4.687,0,0,1-3.72,0L34.134,65.93A4.514,4.514,0,0,0,36.7,61.568v-.641a1.232,1.232,0,0,0-.9-1.154A10.386,10.386,0,0,1,29,50.024a7.888,7.888,0,0,1,.128-1.8,11.616,11.616,0,0,0,6.285,1.8h14.11A10.1,10.1,0,0,1,42.728,59.644ZM75.18,42.328c0,6.285-2.95,9.748-9.235,11.031a8.065,8.065,0,0,0,1.539-5.387,7.924,7.924,0,0,0-7.953-6.926H49.141A11.468,11.468,0,0,0,40.547,37.2H39.265V34.632H41.83A5.146,5.146,0,0,0,46.961,29.5V10.261H72.615a2.573,2.573,0,0,1,2.565,2.565v29.5Z" transform="translate(-0.784)" fill="#00acb1"/>
      </g>
    </g>
    <g id="Group_8990" data-name="Group 8990" transform="translate(10.261 5.131)">
      <g id="Group_8989" data-name="Group 8989">
        <path id="Path_20327" data-name="Path 20327" d="M84.024,40.979H82.742A1.212,1.212,0,0,1,81.459,39.7V35.848a3.848,3.848,0,0,0-7.7,0V39.7a1.212,1.212,0,0,1-1.283,1.283A1.212,1.212,0,0,0,71.2,39.7H66.067a1.212,1.212,0,0,0-1.283,1.283V55.088a1.212,1.212,0,0,0,1.283,1.283H71.2a1.212,1.212,0,0,0,1.283-1.283H84.024a3.779,3.779,0,0,0,3.848-3.848V44.827A3.779,3.779,0,0,0,84.024,40.979ZM69.915,53.806H67.349V42.261h2.565ZM85.307,51.24a1.212,1.212,0,0,1-1.283,1.283H72.48V43.544A3.779,3.779,0,0,0,76.328,39.7V35.848a1.283,1.283,0,0,1,2.565,0V39.7a3.779,3.779,0,0,0,3.848,3.848h1.283a1.212,1.212,0,0,1,1.283,1.283Z" transform="translate(-64.784 -32)" fill="#00acb1"/>
      </g>
    </g>
    <g id="Group_8992" data-name="Group 8992" transform="translate(48.741 12.827)">
      <g id="Group_8991" data-name="Group 8991">
        <path id="Path_20328" data-name="Path 20328" d="M326.59,80h-5.131a1.212,1.212,0,0,0-1.283,1.283H308.632a3.779,3.779,0,0,0-3.848,3.848v6.413a3.779,3.779,0,0,0,3.848,3.848h1.283a1.212,1.212,0,0,1,1.283,1.283v3.848a3.848,3.848,0,0,0,7.7,0V96.675a1.212,1.212,0,0,1,1.283-1.283,1.212,1.212,0,0,0,1.283,1.283h5.131a1.212,1.212,0,0,0,1.283-1.283V81.283A1.212,1.212,0,0,0,326.59,80Zm-6.413,12.827a3.779,3.779,0,0,0-3.848,3.848v3.848a1.283,1.283,0,0,1-2.565,0V96.675a3.779,3.779,0,0,0-3.848-3.848h-1.283a1.212,1.212,0,0,1-1.283-1.283V85.131a1.212,1.212,0,0,1,1.283-1.283h11.544Zm5.131,1.283h-2.565V82.565h2.565Z" transform="translate(-304.784 -80)" fill="#00acb1"/>
      </g>
    </g>
    <g id="Group_8994" data-name="Group 8994" transform="translate(47.238 33.594)">
      <g id="Group_8993" data-name="Group 8993" transform="translate(0 0)">
        <rect id="Rectangle_735" data-name="Rectangle 735" width="5.599" height="2.488" fill="#00acb1"/>
      </g>
    </g>
    <g id="Group_8996" data-name="Group 8996" transform="translate(30.784 5.131)">
      <g id="Group_8995" data-name="Group 8995">
        <path id="Path_20329" data-name="Path 20329" d="M196.632,33.283V32h-2.565v1.283h-1.283v2.565h1.283v1.283h2.565V35.848h1.283V33.283Z" transform="translate(-192.784 -32)" fill="#00acb1"/>
      </g>
    </g>
  </g>
</svg>
