<svg xmlns="http://www.w3.org/2000/svg" width="16.64" height="16.643" viewBox="0 0 16.64 16.643">
  <g id="Group_13" data-name="Group 13" transform="translate(-0.001)">
    <path id="Path_9" data-name="Path 9" d="M11.96,16.64a4.636,4.636,0,0,1-1.591-.284A16.96,16.96,0,0,1,4.208,12.43,16.959,16.959,0,0,1,.284,6.272,4.6,4.6,0,0,1,.05,4.01,4.719,4.719,0,0,1,2.475.552,4.633,4.633,0,0,1,4.691,0,.52.52,0,0,1,5.2.414L6.019,4.22a.52.52,0,0,1-.138.477l-1.4,1.394a13.687,13.687,0,0,0,6.066,6.066l1.394-1.395a.52.52,0,0,1,.474-.138l3.809.816a.52.52,0,0,1,.414.508,4.633,4.633,0,0,1-.552,2.219,4.719,4.719,0,0,1-3.455,2.426,4.622,4.622,0,0,1-.672.05ZM4.277,1.062A3.644,3.644,0,0,0,1.262,5.916a15.772,15.772,0,0,0,9.462,9.462,3.644,3.644,0,0,0,4.854-3.017l-3.1-.664-1.456,1.456a.52.52,0,0,1-.588.1A14.724,14.724,0,0,1,3.381,6.209a.52.52,0,0,1,.1-.588L4.942,4.161Z" transform="translate(0 0)" fill="#8c8f90"/>
  </g>
</svg>
