<svg xmlns="http://www.w3.org/2000/svg" width="182.178" height="182.178" viewBox="0 0 182.178 182.178">
  <g id="Group_9486" data-name="Group 9486" transform="translate(-609.995 -268.379)">
    <g id="Ellipse_1386" data-name="Ellipse 1386" transform="translate(609.995 268.379)" fill="none" stroke="#095962" stroke-width="2">
      <ellipse cx="91.089" cy="91.089" rx="91.089" ry="91.089" stroke="none"/>
      <ellipse cx="91.089" cy="91.089" rx="90.089" ry="90.089" fill="none"/>
    </g>
    <path id="user" d="M64.927,111.858c.815.445,20.219,10.893,41.777,10.893a88.494,88.494,0,0,0,41.841-10.93,1.779,1.779,0,0,0,.864-1.526c0-14.367-4.405-27.513-12.4-37.02a40.326,40.326,0,0,0-20.36-13.27,23.132,23.132,0,1,0-19.88,0A40.33,40.33,0,0,0,76.4,73.276c-8,9.507-12.4,22.653-12.4,37.02a1.779,1.779,0,0,0,.927,1.562Zm22.2-72.736A19.573,19.573,0,1,1,106.7,58.695,19.573,19.573,0,0,1,87.132,39.122Zm-8,36.445c7.226-8.586,17.018-13.314,27.577-13.314s20.351,4.728,27.577,13.314c7.269,8.638,11.356,20.569,11.561,33.691-3.808,2.061-19.63,9.935-39.138,9.935-18.04,0-35.031-7.92-39.137-9.977C67.781,96.111,71.866,84.2,79.127,75.567Z" transform="translate(594 290.099)" fill="#095962"/>
  </g>
</svg>
