<svg xmlns="http://www.w3.org/2000/svg" width="42.402" height="53.733" viewBox="0 0 42.402 53.733">
  <g id="Group_7298" data-name="Group 7298" transform="translate(0 0)">
    <g id="Group_7284" data-name="Group 7284" transform="translate(12.317 1.049)">
      <g id="Group_7283" data-name="Group 7283">
        <g id="Group_7282" data-name="Group 7282">
          <g id="Group_7281" data-name="Group 7281">
            <g id="Group_7280" data-name="Group 7280">
              <g id="Group_7279" data-name="Group 7279">
                <path id="Path_17223" data-name="Path 17223" d="M171.35,10v1.7a6.523,6.523,0,0,0,6.523,6.523h4.721a6.523,6.523,0,0,0,6.523-6.523V10Z" transform="translate(-171.35 -10)" fill="#00acb1"/>
              </g>
            </g>
          </g>
        </g>
      </g>
    </g>
    <g id="Group_7290" data-name="Group 7290">
      <g id="Group_7289" data-name="Group 7289">
        <g id="Group_7288" data-name="Group 7288">
          <g id="Group_7287" data-name="Group 7287">
            <g id="Group_7286" data-name="Group 7286">
              <g id="Group_7285" data-name="Group 7285">
                <path id="Path_17224" data-name="Path 17224" d="M91.04,53.733H59.34a5.357,5.357,0,0,1-5.351-5.351V5.351A5.357,5.357,0,0,1,59.34,0h31.7a5.357,5.357,0,0,1,5.351,5.351V48.382A5.357,5.357,0,0,1,91.04,53.733ZM59.34,2.1a3.255,3.255,0,0,0-3.252,3.252V48.382a3.255,3.255,0,0,0,3.252,3.252h31.7a3.255,3.255,0,0,0,3.252-3.252V5.351A3.255,3.255,0,0,0,91.04,2.1Z" transform="translate(-53.989 0)" fill="#005963"/>
              </g>
            </g>
          </g>
        </g>
      </g>
    </g>
    <g id="Group_7297" data-name="Group 7297" transform="translate(14.593 28.713)">
      <g id="Group_7296" data-name="Group 7296">
        <g id="Group_7295" data-name="Group 7295">
          <g id="Group_7294" data-name="Group 7294">
            <g id="Group_7293" data-name="Group 7293">
              <g id="Group_7292" data-name="Group 7292">
                <g id="Group_7291" data-name="Group 7291">
                  <path id="Path_17225" data-name="Path 17225" d="M202.548,273.595a2.989,2.989,0,0,0-2.813,1.536.1.1,0,0,1-.181,0,2.978,2.978,0,0,0-2.807-1.536,3.581,3.581,0,0,0-3.706,3.793,5.137,5.137,0,0,0,.765,2.79c1.146,1.932,4.922,3.525,5.7,4.019a.261.261,0,0,0,.28,0c.776-.491,4.553-2.072,5.708-4.02a5.135,5.135,0,0,0,.764-2.79A3.583,3.583,0,0,0,202.548,273.595Z" transform="translate(-193.042 -273.595)" fill="#00acb1"/>
                </g>
              </g>
            </g>
          </g>
        </g>
      </g>
    </g>
  </g>
</svg>
