<svg id="Group_9114" data-name="Group 9114" xmlns="http://www.w3.org/2000/svg" width="19.829" height="19.829" viewBox="0 0 19.829 19.829">
  <path id="Path_45686" data-name="Path 45686" d="M0,0H19.829V19.829H0Z" fill="none"/>
  <path id="Path_45687" data-name="Path 45687" d="M14.393,2.652h3.3a.826.826,0,0,1,.826.826V16.7a.826.826,0,0,1-.826.826H2.826A.826.826,0,0,1,2,16.7V3.479a.826.826,0,0,1,.826-.826h3.3V1H7.783V2.652h4.957V1h1.652Zm2.479,6.61H3.652v6.61H16.872ZM12.741,4.3H7.783V5.957H6.131V4.3H3.652v3.3H16.872V4.3H14.393V5.957H12.741ZM5.3,10.915H6.957v1.652H5.3Zm4.131,0h1.652v1.652H9.436Zm4.131,0h1.652v1.652H13.567Z" transform="translate(-0.348 -0.174)" fill="#005963"/>
</svg>
