<svg xmlns="http://www.w3.org/2000/svg" width="21.141" height="21.168" viewBox="0 0 21.141 21.168">
  <path id="Icon_zocial-call" data-name="Icon zocial-call" d="M3.312,7.1a1.558,1.558,0,0,1,.4-.846L6.88,3.083q.37-.317.555.106L10,8a.692.692,0,0,1-.132.819L8.7,9.981a1.315,1.315,0,0,0-.37.819,4.035,4.035,0,0,0,.819,2.035,17.38,17.38,0,0,0,1.612,2.115l.819.845c.247.247.563.551.952.912a15.957,15.957,0,0,0,1.915,1.427,4.287,4.287,0,0,0,2.1.885,1.151,1.151,0,0,0,.846-.344L18.774,17.3a.581.581,0,0,1,.792-.106l4.626,2.722a.386.386,0,0,1,.211.278.338.338,0,0,1-.106.3l-3.172,3.172a1.553,1.553,0,0,1-.845.4,6.394,6.394,0,0,1-2.921-.357,13.217,13.217,0,0,1-3.012-1.44q-1.388-.9-2.577-1.823t-1.9-1.586L9.181,18.2q-.264-.264-.7-.727T6.959,15.65a26.544,26.544,0,0,1-1.877-2.656,15.5,15.5,0,0,1-1.374-2.947A6.269,6.269,0,0,1,3.312,7.1Z" transform="translate(-3.267 -2.947)" fill="#00acb1"/>
</svg>
