<svg xmlns="http://www.w3.org/2000/svg" width="13.069" height="11.436" viewBox="0 0 13.069 11.436">
  <path id="Icon_awesome-quote-left" data-name="Icon awesome-quote-left" d="M11.844,7.968H9.8V6.334A1.635,1.635,0,0,1,11.436,4.7h.2a.611.611,0,0,0,.613-.613V2.863a.611.611,0,0,0-.613-.613h-.2A4.083,4.083,0,0,0,7.352,6.334V12.46a1.226,1.226,0,0,0,1.225,1.225h3.267a1.226,1.226,0,0,0,1.225-1.225V9.193A1.226,1.226,0,0,0,11.844,7.968Zm-7.352,0H2.451V6.334A1.635,1.635,0,0,1,4.084,4.7h.2A.611.611,0,0,0,4.9,4.088V2.863a.611.611,0,0,0-.613-.613h-.2A4.083,4.083,0,0,0,0,6.334V12.46a1.226,1.226,0,0,0,1.225,1.225H4.493A1.226,1.226,0,0,0,5.718,12.46V9.193A1.226,1.226,0,0,0,4.493,7.968Z" transform="translate(0 -2.25)" fill="#fff"/>
</svg>
