<svg xmlns="http://www.w3.org/2000/svg" width="25.184" height="17" viewBox="0 0 25.184 17">
  <path id="Icon_zocial-email" data-name="Icon zocial-email" d="M.072,19.562V5.574q0-.024.073-.461l8.233,7.043L.169,20.048a2.058,2.058,0,0,1-.1-.486ZM1.165,4.141a1.047,1.047,0,0,1,.413-.073H23.75a1.375,1.375,0,0,1,.437.073l-8.257,7.067-1.093.874-2.161,1.773-2.161-1.773-1.093-.874ZM1.189,21l8.281-7.941,3.206,2.6,3.206-2.6L24.163,21a1.166,1.166,0,0,1-.413.073H1.578A1.1,1.1,0,0,1,1.189,21Zm15.786-8.84,8.209-7.043a1.45,1.45,0,0,1,.073.461V19.562a1.861,1.861,0,0,1-.073.486Z" transform="translate(-0.072 -4.068)" fill="#00acb1"/>
</svg>
