<svg xmlns="http://www.w3.org/2000/svg" width="7.748" height="14.733" viewBox="0 0 7.748 14.733">
  <path id="Path_1" data-name="Path 1" d="M6.071.617c.394,0,.791.021,1.183.039.256.011.513.047.753.073L7.989,3.1H7.8c-.26,0-.521,0-.781,0-.2,0-.391,0-.586.008-.629.021-1.091.257-1.123,1.042-.02.566-.034,1.814-.035,1.88.033,0,.654,0,1.279,0,.313,0,.618,0,.831,0h.508c-.127.911-.244,1.785-.371,2.665H5.276l-.05,6.655H2.466l.051-6.666H.26l.02-2.65H2.547v-.2c0-.534,0-1.068.018-1.6a6.615,6.615,0,0,1,.086-1.016A3.014,3.014,0,0,1,3.862,1.237,3.471,3.471,0,0,1,5.851.619Z" transform="translate(-0.26 -0.617)" fill="#005963"/>
</svg>
