<svg xmlns="http://www.w3.org/2000/svg" width="17.999" height="12.373" viewBox="0 0 17.999 12.373">
  <path id="Shape_2" data-name="Shape 2" d="M1502.285,475.994a1.307,1.307,0,0,1-.885-.341l-.024-.021-.023-.023a1.21,1.21,0,0,1-.354-.851v-9.9a1.264,1.264,0,0,1,1.285-1.238h15.429a1.309,1.309,0,0,1,.828.292l.023.019a1.216,1.216,0,0,1,.434.927v9.9a1.21,1.21,0,0,1-.358.856l-.019.019-.02.018a1.307,1.307,0,0,1-.889.345Zm15.252-.824-6.073-5.845-.727.49a1.335,1.335,0,0,1-1.475,0l-.727-.49-6.073,5.845Zm.6-.584v-9.727c0-.011,0-.021,0-.032l-5.964,4.018Zm-16.286-9.727v9.727l5.966-5.741-5.964-4.018C1501.857,464.837,1501.857,464.847,1501.857,464.858Zm7.9,4.28a.444.444,0,0,0,.491,0l6.965-4.693h-14.423Z" transform="translate(-1501 -463.621)" fill="#fff"/>
</svg>
