<svg xmlns="http://www.w3.org/2000/svg" width="10.993" height="17.007" viewBox="0 0 10.993 17.007">
  <path id="Shape_69" data-name="Shape 69" d="M5.172,17a.614.614,0,0,1-.433-.177A17.467,17.467,0,0,1,0,5.363,5.441,5.441,0,0,1,5.5-.007a5.44,5.44,0,0,1,5.5,5.37c0,6.7-5.2,11.3-5.418,11.487A.611.611,0,0,1,5.172,17ZM5.5,1.179A4.239,4.239,0,0,0,1.215,5.363,16.362,16.362,0,0,0,5.2,15.545C6.419,14.308,9.781,10.43,9.781,5.363A4.239,4.239,0,0,0,5.5,1.179ZM5.5,8.1a2.974,2.974,0,0,1-3-2.935,2.973,2.973,0,0,1,3-2.934,2.973,2.973,0,0,1,3,2.934A2.973,2.973,0,0,1,5.5,8.1Zm0-4.683a1.749,1.749,0,1,0,1.79,1.748A1.771,1.771,0,0,0,5.5,3.418Z" transform="translate(-0.001 0.007)" fill="#005963"/>
</svg>
