<svg xmlns="http://www.w3.org/2000/svg" width="13.688" height="13.164" viewBox="0 0 13.688 13.164">
  <path id="Shape_1" data-name="Shape 1" d="M1503.549,375.166a.419.419,0,0,1-.427-.411,6.633,6.633,0,0,1,4.89-6.308,3.467,3.467,0,0,1-1.681-2.947,3.638,3.638,0,0,1,7.271,0,3.468,3.468,0,0,1-1.681,2.947,6.634,6.634,0,0,1,4.889,6.308.42.42,0,0,1-.428.411Zm.443-.823h11.948a6.01,6.01,0,0,0-11.948,0Zm3.193-8.844a2.783,2.783,0,1,0,2.781-2.673A2.732,2.732,0,0,0,1507.185,365.5Z" transform="translate(-1503.122 -362.002)" fill="#fff"/>
</svg>
