<svg xmlns="http://www.w3.org/2000/svg" width="15.25" height="15.25" viewBox="0 0 15.25 15.25">
  <path id="social_icon" data-name="social icon" d="M567.248,763.715h-13a1.109,1.109,0,0,0-1.127,1.092V777.87a1.111,1.111,0,0,0,1.127,1.095h13a1.111,1.111,0,0,0,1.126-1.095V764.807A1.109,1.109,0,0,0,567.248,763.715Zm-9.5,12.764h-2.3v-6.885h2.3Zm-1.152-7.825h-.015a1.316,1.316,0,1,1,.015,0Zm9.458,7.825h-2.3V772.8c0-.927-.334-1.557-1.167-1.557a1.258,1.258,0,0,0-1.182.837,1.541,1.541,0,0,0-.077.559v3.845h-2.3s.03-6.239,0-6.885h2.3v.977a2.287,2.287,0,0,1,2.076-1.138c1.516,0,2.653.982,2.653,3.1Zm-4.743-5.887.015-.021v.021Z" transform="translate(-553.125 -763.715)" fill="#005963" opacity="0.561"/>
</svg>
