<svg xmlns="http://www.w3.org/2000/svg" width="13.73" height="17.013" viewBox="0 0 13.73 17.013">
  <path id="user" d="M64.143,30.726A15.044,15.044,0,0,0,70.565,32.4,13.6,13.6,0,0,0,77,30.721a.274.274,0,0,0,.133-.235,8.808,8.808,0,0,0-1.907-5.691,6.2,6.2,0,0,0-3.13-2.04,3.556,3.556,0,1,0-3.056,0,6.2,6.2,0,0,0-3.13,2.04A8.808,8.808,0,0,0,64,30.486a.274.274,0,0,0,.143.24Zm3.414-11.182a3.009,3.009,0,1,1,3.009,3.009A3.009,3.009,0,0,1,67.556,19.544Zm-1.231,5.6a5.414,5.414,0,0,1,8.479,0,8.212,8.212,0,0,1,1.777,5.179,13.388,13.388,0,0,1-6.017,1.527,14.66,14.66,0,0,1-6.017-1.534A8.211,8.211,0,0,1,66.326,25.147Z" transform="translate(-63.7 -15.688)" fill="#095962" stroke="#095962" stroke-width="0.6"/>
</svg>
